<svg xmlns="http://www.w3.org/2000/svg" width="376" height="137" viewBox="0 0 376 137">
  <g id="Group_24" data-name="Group 24" transform="translate(-842 -524)">
    <g id="Rectangle_16" data-name="Rectangle 16" transform="translate(852 647)" fill="#008682" stroke="#707070" stroke-width="1">
      <rect width="366" height="14" stroke="none"/>
      <rect x="0.5" y="0.5" width="365" height="13" fill="none"/>
    </g>
    <g id="Rectangle_15" data-name="Rectangle 15" transform="translate(842 524)" fill="#fff" stroke="#707070" stroke-width="1">
      <rect width="370" height="130" stroke="none"/>
      <rect x="0.5" y="0.5" width="369" height="129" fill="none"/>
    </g>
    <g id="Ebene_1" transform="translate(924.519 542.976)">
      <g id="Group_19" data-name="Group 19" transform="translate(87.3 2.05)">
        <path id="Path_158" data-name="Path 158" d="M95.81,2.05V19.79c2.02-2.63,3.76-3.53,6.92-3.53a7.642,7.642,0,0,1,6.07,2.63c1.51,1.68,1.98,3.32,1.98,6.58V40.63h-7.53V28.58c0-2.42-.05-2.9-.47-3.79a3.259,3.259,0,0,0-3.01-1.84,3.955,3.955,0,0,0-3.15,1.58,5.465,5.465,0,0,0-.8,3.32V40.64H88.29V2.05h7.53Z" transform="translate(-88.29 -2.05)" fill="#c5c0bd"/>
        <path id="Path_159" data-name="Path 159" d="M139.95,16.79V40.63h-7.53V38a7.393,7.393,0,0,1-6.59,3.42c-6.07,0-10.78-5.58-10.78-12.74S119.71,16,125.78,16a8.15,8.15,0,0,1,6.63,3.11V16.79h7.53Zm-17.03,11.9c0,3,2.21,5.47,4.89,5.47a5.154,5.154,0,0,0,4.85-5.42c0-3-2.16-5.47-4.85-5.47a5.178,5.178,0,0,0-4.89,5.42Z" transform="translate(-88.29 -2.05)" fill="#c5c0bd"/>
        <path id="Path_160" data-name="Path 160" d="M168.93,39c0,5.05-.66,7.37-2.87,9.84-2.26,2.58-5.41,3.84-9.46,3.84-4.33,0-7.43-1.32-9.83-4.21a8.818,8.818,0,0,1-2.31-4.95h8.47a3.333,3.333,0,0,0,3.58,2.42c3.06,0,4.89-2.16,4.89-5.74V37.99c-2.26,2.32-3.95,3.11-6.78,3.11-6.07,0-10.4-5-10.4-12.05s4.66-12.95,10.82-12.95a7.323,7.323,0,0,1,6.35,3.16V16.79h7.53V39ZM152.08,28.63a4.88,4.88,0,1,0,9.7,0,4.88,4.88,0,1,0-9.7,0Z" transform="translate(-88.29 -2.05)" fill="#c5c0bd"/>
        <path id="Path_161" data-name="Path 161" d="M198.63,16.79V40.63H191.1V38a7.393,7.393,0,0,1-6.59,3.42c-6.07,0-10.78-5.58-10.78-12.74S178.39,16,184.46,16a8.15,8.15,0,0,1,6.63,3.11V16.79h7.53ZM181.6,28.69c0,3,2.21,5.47,4.9,5.47a5.147,5.147,0,0,0,4.85-5.42c0-3-2.16-5.47-4.85-5.47A5.186,5.186,0,0,0,181.6,28.69Z" transform="translate(-88.29 -2.05)" fill="#c5c0bd"/>
      </g>
      <g id="Group_20" data-name="Group 20" transform="translate(88.66 0.82)">
        <path id="Path_162" data-name="Path 162" d="M97.17.82V18.56c2.02-2.63,3.76-3.53,6.92-3.53a7.642,7.642,0,0,1,6.07,2.63c1.51,1.68,1.98,3.32,1.98,6.58V39.4h-7.53V27.35c0-2.42-.05-2.9-.47-3.79a3.259,3.259,0,0,0-3.01-1.84,3.955,3.955,0,0,0-3.15,1.58,5.465,5.465,0,0,0-.8,3.32V39.41H89.65V.82h7.53Z" transform="translate(-89.65 -0.82)" fill="#4a524c"/>
        <path id="Path_163" data-name="Path 163" d="M141.31,15.56V39.4h-7.53V36.77a7.393,7.393,0,0,1-6.59,3.42c-6.07,0-10.78-5.58-10.78-12.74s4.66-12.68,10.73-12.68a8.15,8.15,0,0,1,6.63,3.11V15.56h7.53Zm-17.03,11.9c0,3,2.21,5.47,4.89,5.47a5.154,5.154,0,0,0,4.85-5.42c0-3-2.16-5.47-4.85-5.47a5.178,5.178,0,0,0-4.89,5.42Z" transform="translate(-89.65 -0.82)" fill="#4a524c"/>
        <path id="Path_164" data-name="Path 164" d="M170.3,37.78c0,5.05-.66,7.37-2.87,9.84-2.26,2.58-5.41,3.84-9.46,3.84-4.33,0-7.44-1.32-9.83-4.21a8.818,8.818,0,0,1-2.31-4.95h8.47a3.333,3.333,0,0,0,3.58,2.42c3.06,0,4.89-2.16,4.89-5.74V36.77c-2.26,2.32-3.95,3.11-6.78,3.11-6.07,0-10.4-5-10.4-12.05s4.66-12.95,10.82-12.95a7.311,7.311,0,0,1,6.35,3.16V15.57h7.53V37.78ZM153.45,27.41a4.88,4.88,0,1,0,9.7,0,4.88,4.88,0,1,0-9.7,0Z" transform="translate(-89.65 -0.82)" fill="#4a524c"/>
        <path id="Path_165" data-name="Path 165" d="M199.99,15.56V39.4h-7.53V36.77a7.393,7.393,0,0,1-6.59,3.42c-6.07,0-10.78-5.58-10.78-12.74s4.66-12.68,10.73-12.68a8.15,8.15,0,0,1,6.63,3.11V15.56h7.53Zm-17.03,11.9c0,3,2.21,5.47,4.89,5.47a5.154,5.154,0,0,0,4.85-5.42c0-3-2.16-5.47-4.85-5.47a5.178,5.178,0,0,0-4.89,5.42Z" transform="translate(-89.65 -0.82)" fill="#4a524c"/>
      </g>
      <path id="Path_166" data-name="Path 166" d="M83.38,10.53C83.38,4.81,79.23.16,74.11.16h-38V32.35a15.556,15.556,0,0,1,10.61-3.67c6.24-.03,11.6,3.02,14.01,8.52,1.35,3.04,1.66,6.29,1.66,12.69V55.6h21V10.53Z" transform="translate(-0.99)" fill="#008682"/>
      <path id="Path_167" data-name="Path 167" d="M62.38,74.27H74.11a9.151,9.151,0,0,0,8.04-5.23H62.38Z" transform="translate(-0.99 -3.73)" fill="#008682"/>
      <g id="Group_21" data-name="Group 21" transform="translate(61.43 53.893)">
        <path id="Path_168" data-name="Path 168" d="M64.22,59.08v8.38h-1.8V57.19h3.35l1.61,6.15,1.71-6.15h3.35V67.46H70.28V59.08l-2.31,8.38H66.5l-2.26-8.38Z" transform="translate(-62.42 -57.16)" fill="#008682"/>
        <path id="Path_169" data-name="Path 169" d="M76.45,59.14v2.11h3.44v1.93H76.45v2.25h4.38v2.03H74.26V57.19h6.57v1.96H76.45Z" transform="translate(-62.42 -57.16)" fill="#008682"/>
        <path id="Path_170" data-name="Path 170" d="M88.21,59.21H85.94v8.24H83.76V59.21H81.47V57.18H88.2v2.03Z" transform="translate(-62.42 -57.16)" fill="#008682"/>
        <path id="Path_171" data-name="Path 171" d="M95.85,67.45H93.54l-.56-2.11H90.02l-.58,2.11H87.55l2.93-10.27h2.49Zm-3.37-4-.98-3.6-.98,3.6h1.95Z" transform="translate(-62.42 -57.16)" fill="#008682"/>
        <path id="Path_172" data-name="Path 172" d="M102.65,65.42v2.03H96.83V57.18h2.18v8.24h3.65Z" transform="translate(-62.42 -57.16)" fill="#008682"/>
        <path id="Path_173" data-name="Path 173" d="M109.49,65.42v2.03h-5.82V57.18h2.18v8.24h3.65Z" transform="translate(-62.42 -57.16)" fill="#008682"/>
        <path id="Path_174" data-name="Path 174" d="M118.71,67.45H116.6l-1.51-6.79c-.04.26-.07.37-.12.59l-1.32,6.21h-2.11l-2.35-10.27h2.19l1.27,6.27s.04.15.08.34c.01.06.04.17.07.31l1.5-6.92h1.98l1.54,6.92c.05-.25.04-.18.14-.65l1.31-6.27h1.76l-2.31,10.27Z" transform="translate(-62.42 -57.16)" fill="#008682"/>
        <path id="Path_175" data-name="Path 175" d="M129.02,67.45h-2.31l-.56-2.11h-2.96l-.58,2.11h-1.89l2.93-10.27h2.49Zm-3.37-4-.98-3.6-.98,3.6h1.95Z" transform="translate(-62.42 -57.16)" fill="#008682"/>
        <path id="Path_176" data-name="Path 176" d="M132.16,67.45H130V57.18h4.03a3.188,3.188,0,0,1,2.38.69,3.316,3.316,0,0,1,.96,2.39,3.1,3.1,0,0,1-.74,2.06,2.634,2.634,0,0,1-.84.6l1.69,4.53H135.1l-1.4-4.07h-1.54v4.07Zm0-5.82h1.32c.72,0,.88-.03,1.14-.22a1.439,1.439,0,0,0,.11-2.15c-.28-.23-.44-.26-1.31-.26h-1.27v2.62Z" transform="translate(-62.42 -57.16)" fill="#008682"/>
        <path id="Path_177" data-name="Path 177" d="M141.09,59.14v2.11h3.44v1.93h-3.44v2.25h4.38v2.03H138.9V57.19h6.57v1.96h-4.38Z" transform="translate(-62.42 -57.16)" fill="#008682"/>
        <path id="Path_178" data-name="Path 178" d="M153.94,67.45H152.1l-3.59-6.95c.01.17.01.28.01.35.01.23.03.38.03.45v6.14h-1.67V57.17h2.31l3.12,6.05a6.637,6.637,0,0,1-.04-.68V57.16h1.67V67.43Z" transform="translate(-62.42 -57.16)" fill="#008682"/>
        <path id="Path_179" data-name="Path 179" d="M158,59.21v2.31h3.4v1.92H158v4h-2.23V57.17h6.53V59.2H158Z" transform="translate(-62.42 -57.16)" fill="#008682"/>
        <path id="Path_180" data-name="Path 180" d="M170.2,67.45h-2.31l-.57-2.11h-2.96l-.58,2.11h-1.89l2.93-10.27h2.49l2.88,10.27Zm-3.37-4-.98-3.6-.98,3.6h1.95Z" transform="translate(-62.42 -57.16)" fill="#008682"/>
        <path id="Path_181" data-name="Path 181" d="M175.45,57.18a2.866,2.866,0,0,1,2.2.66,2.536,2.536,0,0,1,.85,1.99,2.211,2.211,0,0,1-1.67,2.28,2.335,2.335,0,0,1,1.17.63,2.721,2.721,0,0,1,.74,1.94,2.818,2.818,0,0,1-.84,2,3.307,3.307,0,0,1-2.46.77h-4.28V57.18h4.28Zm-2.13,4.07h1.62a1.345,1.345,0,0,0,.96-.23,1.183,1.183,0,0,0,.4-.92,1.107,1.107,0,0,0-.32-.82c-.23-.25-.4-.28-1.2-.28h-1.47v2.25Zm0,4.31h1.65a1.721,1.721,0,0,0,1.06-.22,1.35,1.35,0,0,0,.48-1.06c0-.75-.54-1.2-1.45-1.2h-1.75v2.48Z" transform="translate(-62.42 -57.16)" fill="#008682"/>
        <path id="Path_182" data-name="Path 182" d="M182.32,67.45h-2.16V57.18h4.03a3.188,3.188,0,0,1,2.38.69,3.316,3.316,0,0,1,.96,2.39,3.053,3.053,0,0,1-.74,2.06,2.634,2.634,0,0,1-.84.6l1.69,4.53h-2.38l-1.4-4.07h-1.54v4.07Zm0-5.82h1.32c.72,0,.88-.03,1.14-.22a1.439,1.439,0,0,0,.11-2.15c-.27-.23-.44-.26-1.31-.26h-1.27v2.62Z" transform="translate(-62.42 -57.16)" fill="#008682"/>
        <path id="Path_183" data-name="Path 183" d="M191.23,67.45h-2.15V57.18h2.15Z" transform="translate(-62.42 -57.16)" fill="#008682"/>
        <path id="Path_184" data-name="Path 184" d="M195.13,62.02l2.88-4.84h2.05l-2.2,3.67,2.75,6.61h-2.37l-1.82-4.45-1.29,2.09v2.36h-2.11V57.19h2.11v4.84Z" transform="translate(-62.42 -57.16)" fill="#008682"/>
      </g>
      <g id="Group_22" data-name="Group 22" transform="translate(41.757 78.089)">
        <path id="Path_185" data-name="Path 185" d="M51.94,89.58c.06-.11.04.15.04.17a1.942,1.942,0,0,1-.24.7c-.3.17-.34.55-.62.74-.24.3-.56.27-.73.65-.19.04-.3.19-.47.25-.06.02-.23-.08-.28-.08-.04.08.04.25,0,.3a.5.5,0,0,1-.4.17,1.466,1.466,0,0,1-.83.53,1.024,1.024,0,0,1-.79.3,2.687,2.687,0,0,1-.55.38c-.24-.06-.51.15-.81.13-.62.15-.83-.06-.72-.65.04-.08.02,0,.13-.17.34-.17.66-.32,1.07-.51.23.08.36,0,.41-.21.28-.15.75-.44,1.02-.61a.4.4,0,0,1,.3-.02c.06-.04.02-.19.08-.23.23-.15.41-.44.66-.48.25-.06.38-.36.55-.55.23,0,.24-.23.41-.42.04-.04.21-.04.28-.08.08-.1.04-.25.09-.34.08-.17.08-.3-.04-.36a3.936,3.936,0,0,0-.73-.25,1.1,1.1,0,0,1-.68.15.841.841,0,0,1-.26-.15.5.5,0,0,1-.17.23,1.254,1.254,0,0,1-.77.13c-.19.08-.38.25-.55.34a1.594,1.594,0,0,0-.13.13,5.142,5.142,0,0,0-.81,1.41c-.04.13-.17.08-.21.23-.17.02,0,.17-.23.36-.02.36-.21.44-.34.63.06,0-.13.06-.04.19a2.424,2.424,0,0,0-.55,1.18l-.17-.06a.546.546,0,0,1-.24.72c-.08.42-.11.8-.47,1.05-.09.49-.41.46-.15,1.08-.19.23-.36.42-.24.76-.11.38-.53.59-.75.34-.47-.63-.17-.99-.15-1.64a.984.984,0,0,1,.4-.67l-.15-.27c.23-.21.19-.42.3-.7a.687.687,0,0,0,.3-.72c-.02-.17.13-.34.26-.48.13-.27.09-.53.34-.76a.658.658,0,0,1,.17-.4c.11-.25.26-.46.36-.72l.26-.1-.06-.25c.08-.08.09-.21.15-.34a2.141,2.141,0,0,1,.32-.57.789.789,0,0,1,.19-.4c.04-.04.04-.08-.04-.13a.9.9,0,0,1-.49-.4.79.79,0,0,1,0-.61.581.581,0,0,1,.62-.32l.58-.02a.584.584,0,0,0,.36-.36c.24-.48.4-.3.62-.51a.776.776,0,0,1,.68.19.676.676,0,0,1,.17.42,1.356,1.356,0,0,1,.77-.1c.26-.11.57-.02.73-.06.45.17.89-.02,1.34.29a2.528,2.528,0,0,1,.98,1.31l-.09.3Z" transform="translate(-42.747 -83.089)" fill="#696863"/>
        <path id="Path_186" data-name="Path 186" d="M58.91,89.75a.491.491,0,0,1-.75-.02c-.19-.27-.19-.57-.34-.82-.11.02-.19.11-.32.13a2.668,2.668,0,0,1-.47.36q-.12.03-.21.06a1.386,1.386,0,0,1-.66.67,1.057,1.057,0,0,1-.26-.02c.02.08.11.21.09.25a3.153,3.153,0,0,0-.32.4,3.407,3.407,0,0,1-.47.48l-.17.06.02.17c-.24.19-.28.34-.47.48-.23.23-.32.06-.21.38-.26.36-.4.82-.57,1.05-.17.36-.45.4-.87.25a.789.789,0,0,1-.3-.86,1.274,1.274,0,0,1,.23-.55.384.384,0,0,1,.06-.17,7.277,7.277,0,0,0,.32-.72l.23-.11-.11-.27c.09-.23.02-.15.17-.57a.771.771,0,0,1,.15-.3,1.092,1.092,0,0,1,.11-.48,1.072,1.072,0,0,1-.06-.17.717.717,0,0,0,.17-.46l-.09-.06a.954.954,0,0,1,0-.53.455.455,0,0,1,.26-.49,2.071,2.071,0,0,0,.24-.17.861.861,0,0,1,.94.42,1.957,1.957,0,0,1,.06.61c0,.04-.15.08-.15.17s.11.08.11.08a3.426,3.426,0,0,0-.19.48c-.06.08-.06.02-.13.19v.23c.11-.13.21-.15.26-.32.24-.23.4-.38.66-.63.13-.17.32-.27.36-.1l.04-.34a7.258,7.258,0,0,1,.72-.57l.57-.38c.21.04.38-.08.58-.02a.717.717,0,0,1,.55.27l.06.06a1.666,1.666,0,0,1,.32.46,1.085,1.085,0,0,1-.15,1.37Z" transform="translate(-42.747 -83.089)" fill="#696863"/>
        <path id="Path_187" data-name="Path 187" d="M66.61,91.16a.639.639,0,0,1-.04.25c-.09.08-.09.19-.11.32a2.305,2.305,0,0,1-.11.42.676.676,0,0,0-.15-.06c.06.4.15.61-.23.93a2.365,2.365,0,0,0,.21.55.583.583,0,0,1-.94.23,2.123,2.123,0,0,1-.3-1.1c.17-.3-.06-.59.13-.95a7.57,7.57,0,0,0,.11-.97c-.15,0-.34.08-.34.27-.17.13-.43.11-.47.3-.06.3-.32.32-.47.46-.72.15-.28.32-.6.36-.11.4-.51.57-.81.76-.15-.02-.13.1-.24.21-.08.08-.04.15-.25.13l-.17-.02s-.04.13-.08.25c-.19.04-.13.02-.24.17a.433.433,0,0,1-.41.19c-.19.13-.43.04-.64.1-.49-.32-1.02-.53-1.15-1.18-.17-.48.08-.67.21-1.03a1.156,1.156,0,0,1,.26-.57c.02-.02.04-.04.07-.25l.21.02a.882.882,0,0,1,.34-.7,4.906,4.906,0,0,1,.28-.5,1.025,1.025,0,0,1,.4-.4s.19.11.17-.13c.28-.04.13-.48.62-.63.11-.34.36-.27.49-.38a.8.8,0,0,0,.32.04c.02-.13,0-.32.06-.3a.337.337,0,0,1,.23-.17c.19-.06.4-.15.58-.21.19.06.51-.27.89-.1a.526.526,0,0,1,.17.04c.19-.11.34.02.51.11a1.221,1.221,0,0,1,.72.57c-.02.3.26.53.04.84a1.926,1.926,0,0,1-.21.4c.68.04.79.32,1.07.82,0,.44.11.44-.11.91Zm-2.09-1.83c-.04-.19.09-.61.02-.67-.15-.15-.6.06-.58.08a1.637,1.637,0,0,1-.36.25h-.06c-.3.25-.41.13-.56.61l-.17.04a1.422,1.422,0,0,1-.66.36l-.08.27a4.714,4.714,0,0,0-.53.46c-.17.19-.11.21-.32.59l-.04.25c-.36.08-.23.23-.47.42.09.06.04.19,0,.34-.11.15-.17.21-.15.32.02,0,.09.08.13.06a1.577,1.577,0,0,0,.72-.49.629.629,0,0,1,.24,0c.06-.1,0-.13.08-.21.17-.08.23-.1.23-.1a.379.379,0,0,1,.36-.23.337.337,0,0,1,.47-.08.36.36,0,0,1,.11-.34c.17-.27.26-.27.49-.42a1.135,1.135,0,0,1,.47-.34,3.169,3.169,0,0,1,.96-.76.567.567,0,0,1-.3-.42Zm-.77-3.37c-.21-.08-.17-.06-.28-.04-.04,0-.19.25-.34.27-.26-.21-.32,0-.68-.42a1.5,1.5,0,0,1,.15-1.12,1.439,1.439,0,0,1,.73-.36.653.653,0,0,1,.75.51c.02.59-.02.84-.34,1.16Zm3.43-.15a1.405,1.405,0,0,1-.73.34.646.646,0,0,1-.75-.48c-.02-.59.02-.84.34-1.16.21.08.17.06.28.04.04-.02.19-.25.34-.3.26.23.32,0,.66.44a1.534,1.534,0,0,1-.13,1.12Z" transform="translate(-42.747 -83.089)" fill="#696863"/>
        <path id="Path_188" data-name="Path 188" d="M74.79,89.05c-.19.08-.13.08-.23.17-.23.32-.62.42-.92.67-.04,0-.08.02-.11.02a7.672,7.672,0,0,0-.77.57,2.761,2.761,0,0,0-.4.06.763.763,0,0,0-.21.21c-.38.06-.58.11-.73.38a1.115,1.115,0,0,1-.87.48c-.04,0-.17.15-.28.25a1.356,1.356,0,0,1-.49.34c-.11.19-.17.3-.38.38l-.02.17a1.021,1.021,0,0,0,.36-.04c.4.06.7-.19,1.02-.15.23.04.4.15.53-.06.4-.06-.26.04.83-.13.41-.06.81-.15,1.21-.21.38-.04.6-.21.94.23a.477.477,0,0,1-.36.7c-.08-.02-.21.13-.36.13-.11-.15-.13-.17-.17-.19-.06.04-.09.17-.13.27a.485.485,0,0,1-.53-.02,1.285,1.285,0,0,1-1.06.36c-.23.08-.47.32-.72.1-.36.17-.73.46-1.15.25-.11.06-.25.04-.36.1l-.85-.04a1.992,1.992,0,0,1-.68-.63c.02-.06-.06-.17-.11-.25a3.96,3.96,0,0,1,.15-.74.51.51,0,0,1,.28-.34c.11-.06.08-.08.08-.27.49-.1.41-.32.77-.51l.26-.17a2.186,2.186,0,0,0,.49-.34.855.855,0,0,0,.36.04c.09-.04,0-.23.26-.4s.57-.29.79-.44a2.623,2.623,0,0,1,.64-.34c.15-.15.45-.38.64-.34.06-.13.58-.34.77-.44.06-.02-.06-.15-.02-.17a3.2,3.2,0,0,1-.72.19c-.49.32-.73-.17-1.07.25l-.85.02-.11.15a1.963,1.963,0,0,1-.87.08.477.477,0,0,1-.47-.11c-.47-.25-.32-.57-.3-.95.09-.19.17-.21.32-.3a1.575,1.575,0,0,1,.15-.19c.3-.08.41-.23.77-.15a.566.566,0,0,1,.23.23,6.933,6.933,0,0,0,1.36-.17c.17.1.32-.04.49-.04.47,0,.34.11.73-.04a.73.73,0,0,1,.51,0,1.412,1.412,0,0,1,1.19.15c.09.06-.15-.08.17.25-.02.19.32.51-.02.93Z" transform="translate(-42.747 -83.089)" fill="#696863"/>
        <path id="Path_189" data-name="Path 189" d="M78.37,89.58s0,.02-.13.13a.756.756,0,0,0-.23.3,1.632,1.632,0,0,0-.36.76c-.02.4-.73.89-.49,1.08-.09.25-.26.65-.17.86a.273.273,0,0,0,.28.15c.58.42.06.93-.41,1.16-.34-.06-.77.04-.92-.4a2.4,2.4,0,0,1-.11-1.09c.11-.06.17-.02.19-.11.02-.06-.08-.13-.17-.17a2.035,2.035,0,0,1,.06-.48c.04-.17.19-.3.13-.48-.04-.15.11-.23.15-.34s.15-.15.3-.21c-.13-.11-.17-.21-.15-.27.06-.15.11-.27.13-.32.06-.13.13-.42.28-.51.08-.04-.04-.21.13-.4a.522.522,0,0,1,.11-.65,3.026,3.026,0,0,1,.98-.72.677.677,0,0,1,.66.21c.21.34.3.63-.26,1.52Zm2.24-3.24a2.551,2.551,0,0,1-.77.02,1.6,1.6,0,0,1-.58-1.16.963.963,0,0,1,1.68-.32A1.4,1.4,0,0,1,81,86.1c-.13.21-.3.08-.38.23Z" transform="translate(-42.747 -83.089)" fill="#696863"/>
        <path id="Path_190" data-name="Path 190" d="M84.57,89.35a.64.64,0,0,1-.32-.61c-.06-.04-.07-.23-.53-.08a6.471,6.471,0,0,1-.89.17c-.32.21-.47.04-.53.08-.21.21-.32.38-.62.38a.624.624,0,0,0-.17-.02.781.781,0,0,1-.4.4.309.309,0,0,1-.08.21.433.433,0,0,0,.41.1c.21.13.15.08.34.04.15.02.32.02.47.04a5.8,5.8,0,0,1,1.04.17,2.369,2.369,0,0,1,.75.25c.62.32,1.13,1.71.17,1.96-.02,0,.02-.06-.19.32.13-.1-.09.19-.32.21a.4.4,0,0,1-.34.15l-.04.15a15.221,15.221,0,0,1-1.41.86c-.34-.11-.26.06-.45.06-.17.46-.73.44-1.13.55-.28-.19-.58-.27-.57-.74l.06-.17a1.257,1.257,0,0,1,.19-.27c.57-.51.96-.27,1.51-.74.3-.1.55-.08.73-.4l.26.04s-.02-.17,0-.19l.36-.21.15-.08c.11-.13.11-.17.23-.3l.04-.13c-.17-.06-.17-.11-.3-.27-.04.02-.15.06-.19.08-.24-.02-.55-.21-.81-.13a.342.342,0,0,1-.45-.08l-.62-.02c-.17-.4-.26-.11-.41-.11-.23,0-.4-.29-.58-.36a1.547,1.547,0,0,1-.3-1.2c.23-.17.11-.48.45-.63.11-.23.28-.19.45-.32.34-.42.57-.36.96-.55a.652.652,0,0,1,.53-.02.48.48,0,0,1,.25-.3c.26-.08.51-.17.77-.25.4.06.68-.21,1.11-.04l.13.13c.06-.04.08-.13.13-.17.19-.04.36-.11.55.06.15.02.23.15.3.3a1.3,1.3,0,0,1,.26,1.31.812.812,0,0,1-.96.36Z" transform="translate(-42.747 -83.089)" fill="#696863"/>
        <path id="Path_191" data-name="Path 191" d="M88.97,89.58s0,.02-.13.13a.756.756,0,0,0-.23.3,1.632,1.632,0,0,0-.36.76c-.02.4-.73.89-.49,1.08-.09.25-.26.65-.17.86a.273.273,0,0,0,.28.15c.58.42.06.93-.41,1.16-.34-.06-.77.04-.92-.4a2.4,2.4,0,0,1-.11-1.09c.11-.06.17-.02.19-.11.02-.06-.08-.13-.17-.17a2.035,2.035,0,0,1,.06-.48c.04-.17.19-.3.13-.48-.04-.15.11-.23.15-.34s.15-.15.3-.21c-.13-.11-.17-.21-.15-.27.06-.15.11-.27.13-.32.06-.13.13-.42.28-.51.08-.04-.04-.21.13-.4a.522.522,0,0,1,.11-.65,3.026,3.026,0,0,1,.98-.72.677.677,0,0,1,.66.21c.21.34.3.63-.26,1.52Zm2.24-3.24a2.551,2.551,0,0,1-.77.02,1.6,1.6,0,0,1-.58-1.16.963.963,0,0,1,1.68-.32,1.4,1.4,0,0,1,.06,1.22c-.13.21-.3.08-.38.23Z" transform="translate(-42.747 -83.089)" fill="#696863"/>
        <path id="Path_192" data-name="Path 192" d="M96.58,91.12a1.749,1.749,0,0,1-.45.38c-.02.1-.06.36-.28.38a.746.746,0,0,1-.38.29.636.636,0,0,1-.51.15c-.06.13-.11.23-.19.4a.359.359,0,0,0-.3.06.752.752,0,0,1-.49.19.5.5,0,0,1-.55.21c-.08.11-.26.17-.4.32-.23.02-.62.17-.81-.06-.17.17-.21.32-.43.25-.11.06-.25-.06-.36-.04-.85,0-.79-.65-1.36-.95a2.7,2.7,0,0,1,.15-1.39c-.08-.38.23-.44.34-.59a.8.8,0,0,0,.17-.4.583.583,0,0,1,.28-.42c.06-.19.28-.13.41-.25.07-.06,0-.3,0-.42a2.465,2.465,0,0,1,.56-.51c.21-.17.45-.57.7-.61V88c.36-.25.66-.57,1.15-.44.24.15.47.46.7.55l.11-.13a1.255,1.255,0,0,0,.51.11,1.55,1.55,0,0,1,.58.1c0,.76.17-.02.43.15s.62.25.68.61a1.348,1.348,0,0,1,.32.76,3.23,3.23,0,0,1-.6,1.41Zm-1.11-1.77c-.11-.02-.26-.32-.38-.19-.11.17-.36-.02-.45-.06-.24.08-.38-.04-.55-.02-.26.15-.51.06-.62.32a1.048,1.048,0,0,0-.41.27c-.28-.3-.28.27-.43.36-.11.38-.32.04-.47.61-.09-.02-.19.17-.24.17a1.125,1.125,0,0,1-.13.27,1.476,1.476,0,0,1-.3.63,1.164,1.164,0,0,1-.06.38,1.5,1.5,0,0,0,.06.29.787.787,0,0,0,.62.02c.19-.06.36.11.53-.15a1.162,1.162,0,0,0,.55-.3c.32.02.53-.21.79-.34a1.007,1.007,0,0,1,.43-.02.886.886,0,0,1,.19-.42,1.458,1.458,0,0,1,.55-.36,3.347,3.347,0,0,0,.58-.88.376.376,0,0,1,.04-.36c-.04,0-.15-.13-.28-.23Z" transform="translate(-42.747 -83.089)" fill="#696863"/>
        <path id="Path_193" data-name="Path 193" d="M105.08,93.37a.524.524,0,0,1-.17-.57c-.04-.02-.26-.04-.3-.08a5.586,5.586,0,0,1-.26-1.07l.19-.3a.365.365,0,0,1-.36-.42.77.77,0,0,1-.11-.38c.13-.13.09-.15,0-.32-.08-.11-.13-.19-.17-.25-.06-.1-.32-.04-.47.08a1.76,1.76,0,0,1-.4.25c-.07.04-.15.08-.26.15a1.864,1.864,0,0,1-.51.36l-.06-.02a2.472,2.472,0,0,1-.51.46,2.22,2.22,0,0,1-.21-.17l-.09.32c-.36.32-.4.57-.87.78a1.152,1.152,0,0,0-.34-.06l.06.32c-.19.23-.15.17-.4.29a.3.3,0,0,0-.13.21l-.32.15a.062.062,0,0,1,.04.02c0,.23-.38.44-.51.63a.917.917,0,0,1-.81,0,1.174,1.174,0,0,1-.34-1.05c.15-.13.11-.17.15-.36.06-.25.15-.44.38-.46.04-.04.08-.17-.09-.34a8.2,8.2,0,0,0,.68-1.24l.32-.08a1.307,1.307,0,0,1,.04-.55c.19-.11.3-.59.47-.82a1.619,1.619,0,0,1,.06-.17.583.583,0,0,1-.08-.38c.11-.59.62-.65,1.07-.8l.04.04a.629.629,0,0,1,.75.48.781.781,0,0,1-.09.51,5.923,5.923,0,0,1-.34.55l-.24.06c-.08.17.04.25-.08.4-.04.04-.06.06-.13.23-.3-.02-.11.08-.25.3-.06.08-.15.21-.24.23l-.04.21c-.11.19-.21.38-.32.57,0,.1-.02.21.09.17l.38-.32c.11,0,.19-.44.56-.38.09-.15.21-.21.36-.44.3.04.13.02.32-.13a2.189,2.189,0,0,1,.23-.21,6.13,6.13,0,0,1,1.02-.7c.09-.04.3.04.3.04a.363.363,0,0,1,.3-.34c.38-.08.47-.25,1-.19a2.957,2.957,0,0,1,.58.21,1.2,1.2,0,0,1,.49.51,1.352,1.352,0,0,1,.13.48.7.7,0,0,1-.09.4c.06.06.19.06.21.15s.02.19.04.3c.02.19.02.36.04.53-.15.17.08.46.08.7a.9.9,0,0,0,.02.23c.15.19.15.53.24.61.3.21.43.44.15.82a1.011,1.011,0,0,1-1.19-.15Z" transform="translate(-42.747 -83.089)" fill="#696863"/>
        <path id="Path_194" data-name="Path 194" d="M119.76,89.75c.09.19-.24.57-.4.7-.06.04-.06.06-.11.21-.13,0-.19.02-.23,0a3.682,3.682,0,0,1-.26.57.62.62,0,0,1-.38.34.781.781,0,0,1-.4.4.342.342,0,0,1-.13.02c-.09.21-.36.36-.53.53-.19,0-.32.1-.57.36-.32,0,.11.5-.9.57l-.06.13a.948.948,0,0,1-.34,0c0,.34-.21.38-.45.36-.11,0-.17.06-.21.19a1.632,1.632,0,0,1-.79-.17c-.04-.02-.08-.06-.26.06l-.23-.21c-.15-.15-.17-.19-.6-.32-.34-.13-.23-.51-.36-.8a.572.572,0,0,1,.04-.51,1.232,1.232,0,0,1,.32-1.05c-.08-.32.17-.53.26-.8.09-.04.19-.17.3-.23a.662.662,0,0,1-.04-.55c.06-.15.38-.25.38-.25l-.09-.21c.11-.63.64-.86.6-1.37,0,0,.19-.34.32-.61l.19-.36a1.429,1.429,0,0,1,.23-.57c.19-.36.32-.38.43-.4.02-.06-.09-.27-.09-.27.13-.42.34-.76.45-1.16.08-.11-.02-.38.06-.65.07-.25.26-.53.83-.61a.634.634,0,0,1,.75.55,1.564,1.564,0,0,1-.32,1.1c-.08.36-.34.32-.32.63a2.116,2.116,0,0,0-.11.21,2.432,2.432,0,0,1-.38.67c-.04.19-.09.38-.26.46,0,.04-.17.46-.17.46-.21.27-.13.19-.24.53,0,0-.17.13-.15.27,0,.27-.38.53-.38.57a.663.663,0,0,0,.02.27,1.587,1.587,0,0,1,.36-.32,2.285,2.285,0,0,1,.55-.32c.08-.04.24.13.32.02l.15-.23c.19-.21.41-.17.62-.27.04-.02.23-.02.3-.17a3.275,3.275,0,0,1,1.36-.06c.28.06.24.1.38.23a.487.487,0,0,1,.51.29,2.1,2.1,0,0,1,.19,1.62c-.06.06-.09.13-.15.15Zm-1.56-1.07c-.08.04-.3-.04-.3-.04-.17.04-.17.11-.26.17-.41.19-.98.13-1.24.63a1.389,1.389,0,0,0-.23.04c-.24.19-.32.04-.38.51-.36-.08-.4-.06-.58.17a1.04,1.04,0,0,1-.26.36,1.618,1.618,0,0,0-.32.38.573.573,0,0,0-.06.25.968.968,0,0,0-.19.15.347.347,0,0,1-.21.1c.07.13-.17.34-.25.51a.273.273,0,0,0-.04.3c-.11.13-.08.27-.09.42-.04.23.02.3.32.19.15-.08.49.21.51-.15a1.926,1.926,0,0,0,.68-.36.61.61,0,0,0,.38-.23l.26.08c.08-.13.09-.3.24-.44.13-.15.23-.34.4-.27s.26-.19.4-.3c.09-.08.26.19.3-.21a5.194,5.194,0,0,0,.87-.95c.09-.06.19-.04.23-.06s-.08-.21,0-.3c.08-.19.13-.21.17-.34a.673.673,0,0,0,.08-.53c-.09-.1-.21-.1-.41-.08Z" transform="translate(-42.747 -83.089)" fill="#696863"/>
        <path id="Path_195" data-name="Path 195" d="M123.32,89.58s0,.02-.13.13a.756.756,0,0,0-.23.3,1.632,1.632,0,0,0-.36.76c-.02.4-.73.89-.49,1.08-.09.25-.26.65-.17.86a.273.273,0,0,0,.28.15c.58.42.06.93-.41,1.16-.34-.06-.77.04-.92-.4a2.4,2.4,0,0,1-.11-1.09c.11-.06.17-.02.19-.11.02-.06-.07-.13-.17-.17a2.035,2.035,0,0,1,.06-.48c.04-.17.19-.3.13-.48-.04-.15.11-.23.15-.34s.15-.15.3-.21c-.13-.11-.17-.21-.15-.27.06-.15.11-.27.13-.32.06-.13.13-.42.28-.51.08-.04-.04-.21.13-.4a.522.522,0,0,1,.11-.65,3.026,3.026,0,0,1,.98-.72.677.677,0,0,1,.66.21c.21.34.3.63-.26,1.52Zm2.24-3.24a2.551,2.551,0,0,1-.77.02,1.6,1.6,0,0,1-.58-1.16.963.963,0,0,1,1.68-.32,1.4,1.4,0,0,1,.06,1.22c-.13.21-.3.08-.38.23Z" transform="translate(-42.747 -83.089)" fill="#696863"/>
        <path id="Path_196" data-name="Path 196" d="M129.52,89.35a.64.64,0,0,1-.32-.61c-.06-.04-.08-.23-.53-.08a6.471,6.471,0,0,1-.89.17c-.32.21-.47.04-.53.08-.21.21-.32.38-.62.38a.624.624,0,0,0-.17-.02.746.746,0,0,1-.4.4.309.309,0,0,1-.08.21.433.433,0,0,0,.41.1c.21.13.15.08.34.04.15.02.32.02.47.04a5.8,5.8,0,0,1,1.04.17,2.369,2.369,0,0,1,.75.25c.62.32,1.13,1.71.17,1.96-.02,0,.02-.06-.19.32.13-.1-.09.19-.32.21a.4.4,0,0,1-.34.15l-.04.15a15.221,15.221,0,0,1-1.41.86c-.34-.11-.26.06-.45.06-.17.46-.73.44-1.13.55-.28-.19-.58-.27-.56-.74l.06-.17a1.257,1.257,0,0,1,.19-.27c.57-.51.96-.27,1.51-.74.3-.1.55-.08.73-.4l.26.04s-.02-.17,0-.19l.36-.21.15-.08c.11-.13.11-.17.23-.3l.04-.13c-.17-.06-.17-.11-.3-.27-.04.02-.15.06-.19.08-.24-.02-.55-.21-.81-.13a.342.342,0,0,1-.45-.08l-.62-.02c-.17-.4-.26-.11-.41-.11-.23,0-.4-.29-.58-.36a1.547,1.547,0,0,1-.3-1.2c.23-.17.11-.48.45-.63.11-.23.28-.19.45-.32.34-.42.57-.36.96-.55a.652.652,0,0,1,.53-.02.48.48,0,0,1,.25-.3c.26-.08.51-.17.77-.25.4.06.68-.21,1.11-.04l.13.13c.06-.04.08-.13.13-.17.19-.04.36-.11.55.06.15.02.23.15.3.3a1.3,1.3,0,0,1,.26,1.31.812.812,0,0,1-.96.36Z" transform="translate(-42.747 -83.089)" fill="#696863"/>
        <path id="Path_197" data-name="Path 197" d="M138.43,89.58s0,.02-.13.13a.756.756,0,0,0-.23.3,1.632,1.632,0,0,0-.36.76c-.02.4-.73.89-.49,1.08-.09.25-.26.65-.17.86a.273.273,0,0,0,.28.15c.58.42.06.93-.41,1.16-.34-.06-.77.04-.92-.4a2.4,2.4,0,0,1-.11-1.09c.11-.06.17-.02.19-.11.02-.06-.07-.13-.17-.17a2.035,2.035,0,0,1,.06-.48c.04-.17.19-.3.13-.48-.04-.15.11-.23.15-.34s.15-.15.3-.21c-.13-.11-.17-.21-.15-.27.06-.15.11-.27.13-.32.06-.13.13-.42.28-.51.08-.04-.04-.21.13-.4a.522.522,0,0,1,.11-.65,3.026,3.026,0,0,1,.98-.72.677.677,0,0,1,.66.21c.21.34.3.63-.26,1.52Zm2.24-3.24a2.551,2.551,0,0,1-.77.02,1.6,1.6,0,0,1-.58-1.16.963.963,0,0,1,1.68-.32,1.4,1.4,0,0,1,.06,1.22c-.13.21-.3.08-.38.23Z" transform="translate(-42.747 -83.089)" fill="#696863"/>
        <path id="Path_198" data-name="Path 198" d="M146.66,93.37a.524.524,0,0,1-.17-.57c-.04-.02-.26-.04-.3-.08a5.585,5.585,0,0,1-.26-1.07l.19-.3a.365.365,0,0,1-.36-.42.77.77,0,0,1-.11-.38c.13-.13.09-.15,0-.32-.08-.11-.13-.19-.17-.25-.06-.1-.32-.04-.47.08a1.76,1.76,0,0,1-.4.25c-.07.04-.15.08-.26.15a1.864,1.864,0,0,1-.51.36l-.06-.02a2.472,2.472,0,0,1-.51.46,2.22,2.22,0,0,1-.21-.17l-.09.32c-.36.32-.4.57-.87.78a1.152,1.152,0,0,0-.34-.06l.06.32c-.19.23-.15.17-.4.29a.3.3,0,0,0-.13.21l-.32.15a.062.062,0,0,1,.04.02c0,.23-.38.44-.51.63a.917.917,0,0,1-.81,0,1.174,1.174,0,0,1-.34-1.05c.15-.13.11-.17.15-.36.06-.25.15-.44.38-.46.04-.04.08-.17-.09-.34a8.2,8.2,0,0,0,.68-1.24l.32-.08a1.307,1.307,0,0,1,.04-.55c.19-.11.3-.59.47-.82a1.619,1.619,0,0,1,.06-.17.532.532,0,0,1-.07-.38c.11-.59.62-.65,1.07-.8l.04.04a.629.629,0,0,1,.75.48.781.781,0,0,1-.09.51,5.923,5.923,0,0,1-.34.55l-.24.06c-.08.17.04.25-.08.4-.04.04-.06.06-.13.23-.3-.02-.11.08-.25.3-.06.08-.15.21-.24.23l-.04.21c-.11.19-.21.38-.32.57,0,.1-.02.21.09.17l.38-.32c.11,0,.19-.44.57-.38.09-.15.21-.21.36-.44.3.04.13.02.32-.13a2.189,2.189,0,0,1,.23-.21,6.13,6.13,0,0,1,1.02-.7c.09-.04.3.04.3.04a.363.363,0,0,1,.3-.34c.38-.08.47-.25,1-.19a2.957,2.957,0,0,1,.58.21,1.2,1.2,0,0,1,.49.51,1.172,1.172,0,0,1,.13.48.7.7,0,0,1-.09.4c.06.06.19.06.21.15s.02.19.04.3c.02.19.02.36.04.53-.15.17.07.46.07.7a.9.9,0,0,0,.02.23c.15.19.15.53.24.61.3.21.43.44.15.82a1.011,1.011,0,0,1-1.19-.15Z" transform="translate(-42.747 -83.089)" fill="#696863"/>
        <path id="Path_199" data-name="Path 199" d="M154.14,89.35a.64.64,0,0,1-.32-.61c-.06-.04-.08-.23-.53-.08a6.471,6.471,0,0,1-.89.17c-.32.21-.47.04-.53.08-.21.21-.32.38-.62.38a.624.624,0,0,0-.17-.02.746.746,0,0,1-.4.4.309.309,0,0,1-.08.21.433.433,0,0,0,.41.1c.21.13.15.08.34.04.15.02.32.02.47.04a5.8,5.8,0,0,1,1.04.17,2.369,2.369,0,0,1,.75.25c.62.32,1.13,1.71.17,1.96-.02,0,.02-.06-.19.32.13-.1-.09.19-.32.21a.4.4,0,0,1-.34.15l-.04.15a15.222,15.222,0,0,1-1.41.86c-.34-.11-.26.06-.45.06-.17.46-.73.44-1.13.55-.28-.19-.58-.27-.57-.74l.06-.17a1.257,1.257,0,0,1,.19-.27c.57-.51.96-.27,1.51-.74.3-.1.55-.08.73-.4l.26.04s-.02-.17,0-.19l.36-.21.15-.08c.11-.13.11-.17.23-.3l.04-.13c-.17-.06-.17-.11-.3-.27-.04.02-.15.06-.19.08-.24-.02-.55-.21-.81-.13a.342.342,0,0,1-.45-.08l-.62-.02c-.17-.4-.26-.11-.41-.11-.23,0-.4-.29-.58-.36a1.547,1.547,0,0,1-.3-1.2c.23-.17.11-.48.45-.63.11-.23.28-.19.45-.32.34-.42.57-.36.96-.55a.652.652,0,0,1,.53-.02.48.48,0,0,1,.25-.3c.26-.08.51-.17.77-.25.4.06.68-.21,1.11-.04l.13.13c.06-.04.08-.13.13-.17.19-.04.36-.11.55.06.15.02.23.15.3.3a1.3,1.3,0,0,1,.26,1.31.812.812,0,0,1-.96.36Z" transform="translate(-42.747 -83.089)" fill="#696863"/>
        <path id="Path_200" data-name="Path 200" d="M169.73,84.84c-.02.06.23.15.13.32-.09.21-.3.59-.72,1.37-.08.17-.15.27-.24.44l-.19.02a.6.6,0,0,1-.19.49l-.19-.13.02.4c-.06.04-.11.1-.3.4a1.662,1.662,0,0,1-.24.48c-.23.08-.13.36-.23.48-.15.06-.13.25-.19.4-.13.34-.08.63-.34.91-.09-.08-.02.67-.26.86a.446.446,0,0,0-.11.53.544.544,0,0,1-.09.44c-.08.13,0,.38-.06.48a.284.284,0,0,1,.04.13c.55-.23.75.46.41.74-.19.13-.55.38-.55.38-.02-.19-.15-.11-.23.04a.943.943,0,0,1-.51.04c-.04-.06-.08-.19-.13-.25.02,0,.07.02-.24-.15l-.06-.44c.21-.34.06-.4.08-.7.02.02.11-.27.11-.25l.02-.38c.06-.02.36-.38.13-.57.09-.19.19-.44.19-.44l-.11-.02a2.715,2.715,0,0,0-.38.34c0,.08-.09.17-.09.27-.28.11-.11.13-.32.32a.6.6,0,0,1-.43.17l.04.17c-.56.25-.51.59-1.17.91l-.11-.1a.638.638,0,0,1-.45.21c-.13.3-.38.25-.43.59-.15-.06-.26,0-.41.08a.676.676,0,0,1-.64,0,1.665,1.665,0,0,0-.64-.48,2.391,2.391,0,0,1-.36-1.07,5.09,5.09,0,0,1,.7-1.62V90.5a1.37,1.37,0,0,1,.55-.63,1.336,1.336,0,0,1,.49-.61.6.6,0,0,1,.32.02.431.431,0,0,1,.21-.55c.13-.36.28-.44.58-.46.02,0,.04.04.04-.15a1.783,1.783,0,0,0,.64-.42,1.3,1.3,0,0,1,.66-.3c.15-.15.32-.11.49-.15.24-.02.45-.04.7-.04a.712.712,0,0,1,.53.19.734.734,0,0,1,.55.53l.11-.02c.09-.21.17-.38.23-.49a.955.955,0,0,1,.24-.55c.09-.1.45-.02.19-.38,0,0,.11-.27.21-.53.23-.61.26-.55.4-.93.09-.1.26-.1.32-.15-.13-.17.04-.61.13-.76a2.006,2.006,0,0,0,.43-.4c.3-.13.15.06.47-.13a.818.818,0,0,1,.47.32,1.209,1.209,0,0,1,.13.7l-.32.23Zm-4.03,4.09a.737.737,0,0,1-.06-.27c-.02-.15-.15-.17-.32-.15a1.374,1.374,0,0,0-.66.28.912.912,0,0,0-.21.15c-.08.04-.26-.06-.34,0-.04.02.04.21-.02.23l-.19.15a3.17,3.17,0,0,0-.72.59c-.24.44-.34.23-.43.72-.43.08-.32.36-.51.65-.06.06-.11.15-.21.19-.08.34-.32.53-.36.82.02.21.26.13.47-.06l.32-.11c.32-.21.3-.3.58-.46.13-.06.38,0,.53-.36a1.636,1.636,0,0,0,.28.1,1.808,1.808,0,0,1,.13-.34c.24-.19.75-.48.85-.76l.24-.11a.529.529,0,0,1,.24-.38c.26-.06.38-.36.6-.51-.11-.13.04-.32-.24-.38Z" transform="translate(-42.747 -83.089)" fill="#696863"/>
        <path id="Path_201" data-name="Path 201" d="M174.28,92.89l-.26.15a.5.5,0,0,1-.3.02,6.191,6.191,0,0,0-.72.42l-.13-.21a2.48,2.48,0,0,1-.32.17c-.17.13-.32.4-.57.32a.9.9,0,0,1-.51.06,2.01,2.01,0,0,1-.15-.15.609.609,0,0,1-.41.21,2.367,2.367,0,0,1-.79-.23c-.55-.46-.81-.42-1-.91a.936.936,0,0,1-.08-.57c-.21-.42-.02-.72.09-1.07.02.02.17-.06.19-.04l-.11-.32c.04-.08.04-.06.15-.3.17,0,.17.06.17-.04a.655.655,0,0,1-.02-.23c.15-.19.28-.36.43-.55a2.6,2.6,0,0,0,.21-.3c.04-.06.13-.13.24-.25a4.318,4.318,0,0,1,.36-.46l.28-.15c.36.04.19-.23.3-.32a.4.4,0,0,1,.17-.04,1.517,1.517,0,0,1,.83-.51.338.338,0,0,0,.23-.06c.32.19.19.1.57,0a1.054,1.054,0,0,1,1.04.34c.07.08.21.15.32.27.09.06.04.25.09.38.04.08.19.13.19.25a.386.386,0,0,1-.06.42c-.06.13-.08.3-.13.44-.11.17-.3.46-.34.51a.361.361,0,0,1-.24.04.427.427,0,0,1-.17.32l-.24.02s-.3.32-.36.4l-.41.3c-.11.1-.26-.08-.41.27a.417.417,0,0,1-.64-.23.559.559,0,0,1,.17-.61l.23-.15a1.371,1.371,0,0,1,.36-.38,2.061,2.061,0,0,1,.43-.27c.02-.25.23-.3.36-.42a1.083,1.083,0,0,0,.24-.53l-.09-.29c-.09-.11-.26-.06-.38-.02-.15.08-.21.06-.36.15-.09.04-.24.06-.3.23-.06.15-.25.13-.36.23-.09.11-.23.19-.32.32-.04.04-.36.13-.4.17s.06.21.02.25c-.08.08-.08.17-.17.23-.04.38-.45.42-.47.61l-.06.19a.728.728,0,0,1-.32.53c.04.06,0,.15.11.32a.322.322,0,0,0-.13.4h.02s.04.32.23.4c.15.02.13.08.19.08.17-.13.34-.06.53-.06.34.04.34,0,.32-.02l.17.11c.07-.04.17-.21.26-.21.28-.15.45,0,.7-.25.15,0,.49.06.58-.1a2.788,2.788,0,0,1,1.09-.51,1.2,1.2,0,0,1,.9-.25c.23.11.23.25.21.46-.34.86-1.04.59-1.24,1.03Z" transform="translate(-42.747 -83.089)" fill="#696863"/>
        <path id="Path_202" data-name="Path 202" d="M183.71,87.91c-.42-.21-.62-.04-1.02-.1a.6.6,0,0,1-.6.08c-.02-.02-.32-.19-.32.15-.06-.02-.43-.04-.53.06a.391.391,0,0,1-.49,0,.366.366,0,0,1-.41.21.925.925,0,0,0-.55.23c.04.23.08.49-.21.55a1.376,1.376,0,0,1-.24.3c-.06.06.08.34-.21.61-.21.19-.06.4-.45.67a1.434,1.434,0,0,1-.34.93c-.04.04-.11.17-.08.23-.21.27-.32.32-.32.65a.716.716,0,0,1-.21.55.83.83,0,0,0-.19.27c.41.84-.75,1.18-.9.55a4.181,4.181,0,0,1-.02-.49,4.67,4.67,0,0,1,.34-1.43.631.631,0,0,1,.26-.21.563.563,0,0,1-.08-.38,8.31,8.31,0,0,1,.55-1.41c.04-.08.24-.02.26-.11a.474.474,0,0,1-.04-.48,2,2,0,0,1,.3-.65s-.04-.06-.08-.06a.7.7,0,0,1-.62.04.462.462,0,0,1-.23-.02c-.49-.23-.66-.46-.72-.78a.583.583,0,0,1,.47-.74.53.53,0,0,1,.26.02l.21.17c.09-.06.13-.17.19-.17a5.134,5.134,0,0,0,.81,0,.653.653,0,0,1,.53-.08,3.336,3.336,0,0,0,.28-.46c.19-.04.15.04.23.02a.578.578,0,0,1-.02-.32c-.02-.15.23-.46.26-.55.09-.02.13-.34.17-.44a.6.6,0,0,1,0-.63c.24-.44.98-.91,1.37-.42.3.02.32.74.3.99l-.11.13-.08.25a4.737,4.737,0,0,0-.32.46l.04.23a1.576,1.576,0,0,0-.39.53,2.641,2.641,0,0,1,.56-.04c.28-.25.41-.02.72-.02a.246.246,0,0,0,.21-.1,2.341,2.341,0,0,1,1.71.27c.49.4.11.84-.28.95Z" transform="translate(-42.747 -83.089)" fill="#696863"/>
        <path id="Path_203" data-name="Path 203" d="M189.26,91.16a.639.639,0,0,1-.04.25c-.09.08-.09.19-.11.32a2.306,2.306,0,0,1-.11.42.676.676,0,0,0-.15-.06c.06.4.15.61-.23.93a2.364,2.364,0,0,0,.21.55.583.583,0,0,1-.94.23,2.123,2.123,0,0,1-.3-1.1c.17-.3-.06-.59.13-.95a7.572,7.572,0,0,0,.11-.97c-.15,0-.34.08-.34.27-.17.13-.43.11-.47.3-.06.3-.32.32-.47.46-.72.15-.28.32-.6.36-.11.4-.51.57-.81.76-.15-.02-.13.1-.24.21-.08.08-.04.15-.24.13l-.17-.02s-.04.13-.07.25c-.19.04-.13.02-.24.17a.44.44,0,0,1-.42.19c-.19.13-.43.04-.64.1-.49-.32-1.02-.53-1.15-1.18-.17-.48.08-.67.21-1.03a1.156,1.156,0,0,1,.26-.57c.02-.02.04-.04.08-.25l.21.02a.882.882,0,0,1,.34-.7,4.9,4.9,0,0,1,.28-.5,1.026,1.026,0,0,1,.4-.4s.19.11.17-.13c.28-.04.13-.48.62-.63.11-.34.36-.27.49-.38a.8.8,0,0,0,.32.04c.02-.13,0-.32.06-.3a.337.337,0,0,1,.23-.17c.19-.06.4-.15.59-.21.19.06.51-.27.89-.1a.526.526,0,0,1,.17.04c.19-.11.34.02.51.11a1.221,1.221,0,0,1,.72.57c-.02.3.26.53.04.84a1.926,1.926,0,0,1-.21.4c.68.04.79.32,1.07.82,0,.44.11.44-.11.91Zm-2.09-1.83c-.04-.19.09-.61.02-.67-.15-.15-.6.06-.58.08a1.637,1.637,0,0,1-.36.25h-.06c-.3.25-.42.13-.57.61l-.17.04a1.422,1.422,0,0,1-.66.36l-.08.27a4.714,4.714,0,0,0-.53.46c-.17.19-.11.21-.32.59l-.04.25c-.36.08-.23.23-.47.42.09.06.04.19,0,.34-.11.15-.17.21-.15.32.02,0,.09.08.13.06a1.577,1.577,0,0,0,.72-.49.63.63,0,0,1,.24,0c.06-.1,0-.13.08-.21.17-.08.23-.1.23-.1a.379.379,0,0,1,.36-.23.337.337,0,0,1,.47-.08.36.36,0,0,1,.11-.34c.17-.27.26-.27.49-.42a1.135,1.135,0,0,1,.47-.34,3.169,3.169,0,0,1,.96-.76.567.567,0,0,1-.3-.42Z" transform="translate(-42.747 -83.089)" fill="#696863"/>
        <path id="Path_204" data-name="Path 204" d="M193.37,89.58s0,.02-.13.13a.756.756,0,0,0-.23.3,1.632,1.632,0,0,0-.36.76c-.02.4-.74.89-.49,1.08-.09.25-.26.65-.17.86a.273.273,0,0,0,.28.15c.58.42.06.93-.41,1.16-.34-.06-.77.04-.92-.4a2.4,2.4,0,0,1-.11-1.09c.11-.06.17-.02.19-.11.02-.06-.08-.13-.17-.17a2.035,2.035,0,0,1,.06-.48c.04-.17.19-.3.13-.48-.04-.15.11-.23.15-.34s.15-.15.3-.21c-.13-.11-.17-.21-.15-.27.06-.15.11-.27.13-.32.06-.13.13-.42.28-.51.07-.04-.04-.21.13-.4a.522.522,0,0,1,.11-.65,3.026,3.026,0,0,1,.98-.72.677.677,0,0,1,.66.21c.21.34.3.63-.26,1.52Zm2.24-3.24a2.551,2.551,0,0,1-.77.02,1.6,1.6,0,0,1-.58-1.16.963.963,0,0,1,1.68-.32A1.4,1.4,0,0,1,196,86.1c-.13.21-.3.08-.38.23Z" transform="translate(-42.747 -83.089)" fill="#696863"/>
        <path id="Path_205" data-name="Path 205" d="M199.41,84.59c-.04.08.11.34.11.34l-.26.38c-.24.42-.39.25-.64.8a3.033,3.033,0,0,0-.32.55,2.329,2.329,0,0,1-.41.65c-.32.3-.38.82-.62,1.2a1.311,1.311,0,0,1-.26.72c-.43.3-.47.93-.6,1.41-.04.08-.23.15-.3.23a1.048,1.048,0,0,1,.08.42,6.628,6.628,0,0,1-.25.67,1.108,1.108,0,0,0-.09.46,1.388,1.388,0,0,1-.02.38.492.492,0,0,1,.45.78,1.752,1.752,0,0,1-1.28.53.748.748,0,0,1-.45-.78.665.665,0,0,1-.06-.44c.04-.17.08-.36.15-.57l.04-.06-.02-.38a.7.7,0,0,0,.23-.61.424.424,0,0,1,.28-.46c-.19-.57.3-.51.24-1.07.32-.48.28-.93.68-1.5.09-.04.24-.06.28-.08.02-.02-.11-.19-.15-.3a14.984,14.984,0,0,1,.7-1.41c.04-.08.26-.08.32-.15.04-.06-.13-.34-.09-.38a4.579,4.579,0,0,1,.43-.76c.11-.21.15-.3.23-.44.26-.04.17-.25.24-.38a3.891,3.891,0,0,1,.57-.84l.21-.06c.07-.15.09-.25.24-.21a.94.94,0,0,1,.57.1,1.12,1.12,0,0,1,.11,1.14c-.11.21-.26,0-.32.13Z" transform="translate(-42.747 -83.089)" fill="#696863"/>
      </g>
      <path id="Path_206" data-name="Path 206" d="M39.95,90.958a32.035,32.035,0,0,1-3.61.192C16.82,91.16.99,74.121.99,53.11S16.82,15.07,36.34,15.07a32.894,32.894,0,0,1,9.86,1.5" transform="translate(-0.99 -2)" fill="none" stroke="#830918" stroke-linecap="round" stroke-width="1.98"/>
      <g id="Group_23" data-name="Group 23" transform="translate(17.84)">
        <path id="Path_207" data-name="Path 207" d="M45.61,74.21V49.45c0-3.49-.56-8.14-5.4-8.14-4.51,0-6.61,2.99-6.61,9.4v23.5H19.33V.5H33.6V39.05l.9-1.15c3.61-4.65,7.03-6.46,12.22-6.46,5.53,0,9.81,2.54,11.76,6.98,1.08,2.41,1.4,5.09,1.4,11.49V74.22H45.61Z" transform="translate(-18.83)" fill="#fff"/>
        <path id="Path_208" data-name="Path 208" d="M33.1,1V40.51l1.79-2.31c3.54-4.57,6.75-6.26,11.83-6.26s9.44,2.44,11.3,6.69c1.04,2.33,1.36,4.97,1.36,11.28V73.72H46.11V49.46c0-2.14,0-8.64-5.9-8.64-6.37,0-7.11,5.65-7.11,9.9v23H19.83V1H33.1m1-1H18.83V74.71H34.1v-24c0-6.11,1.85-8.9,6.11-8.9,3.38,0,4.9,2.34,4.9,7.64V74.71H60.38V49.9c0-6.38-.32-9.17-1.45-11.69-2.01-4.59-6.51-7.28-12.21-7.28-5.38,0-8.92,1.89-12.62,6.65V0h0Z" transform="translate(-18.83)" fill="#4a524c"/>
      </g>
      <path id="Path_209" data-name="Path 209" d="M205.27,90.3a1.973,1.973,0,1,1-1.96-2.2A2.1,2.1,0,0,1,205.27,90.3Z" transform="translate(-0.99 -5)" fill="#830918"/>
    </g>
  </g>
</svg>
