<svg xmlns="http://www.w3.org/2000/svg" width="32" height="32" viewBox="0 0 32 32">
  <path id="Icon_material-local-phone" data-name="Icon material-local-phone" d="M10.936,18.349A26.931,26.931,0,0,0,22.651,30.064l3.911-3.911a1.768,1.768,0,0,1,1.813-.427,20.279,20.279,0,0,0,6.347,1.013A1.783,1.783,0,0,1,36.5,28.518v6.2A1.783,1.783,0,0,1,34.722,36.5,30.22,30.22,0,0,1,4.5,6.278,1.783,1.783,0,0,1,6.278,4.5H12.5a1.783,1.783,0,0,1,1.778,1.778,20.2,20.2,0,0,0,1.013,6.347,1.784,1.784,0,0,1-.444,1.813l-3.911,3.911Z" transform="translate(-4.5 -4.5)" fill="#fff"/>
</svg>
